<svg width="168" height="75" viewBox="0 0 168 75" fill="none" xmlns="http://www.w3.org/2000/svg">
<g filter="url(#filter0_d_1003_1167)">
<rect x="18" y="8" width="135" height="40" rx="5" fill="url(#paint0_linear_1003_1167)"/>
<path d="M42.6191 20H42.1504V27.5312H49.6816V27.0625C49.6816 23.1853 46.4964 20 42.6191 20Z" fill="white"/>
<path d="M36.1221 34.2227C37.3594 35.3063 38.9743 36 40.7444 36C44.6217 36 47.7757 32.8147 47.7757 28.9375V28.4688H41.876L36.1221 34.2227Z" fill="white"/>
<path d="M41.2129 21.9062H40.7442C39.2134 21.9062 37.7997 22.4034 36.644 23.237L41.2129 27.8059V21.9062Z" fill="white"/>
<path d="M35.9184 23.8371C34.5636 25.1195 33.6816 26.9291 33.6816 28.9375C33.6816 30.7077 34.3754 32.3225 35.4589 33.5599L40.55 28.4688L35.9184 23.8371Z" fill="white"/>
<path d="M63.2284 23.855C60.8884 23.855 59.4784 25.58 59.4784 28.145C59.4784 30.77 61.0084 32.285 63.2434 32.285C65.0884 32.285 66.5734 31.34 66.5734 29.15V28.835H62.9434V27.53H67.9534V33.515H66.7234L66.6184 32.045C66.0334 32.99 64.7134 33.68 63.1234 33.68C60.0484 33.68 57.9334 31.46 57.9334 28.115C57.9334 24.815 60.0634 22.475 63.2584 22.475C65.6284 22.475 67.4734 23.84 67.8334 25.925H66.2734C65.8684 24.545 64.6684 23.855 63.2284 23.855ZM74.0081 26.105V27.395H73.3781C72.0431 27.395 71.2181 28.205 71.2181 29.615V33.5H69.8081V26.18H71.1281L71.2181 27.29C71.5181 26.525 72.2531 26.015 73.2581 26.015C73.5131 26.015 73.7231 26.045 74.0081 26.105ZM77.1826 33.68C75.6076 33.68 74.6776 32.795 74.6776 31.46C74.6776 30.11 75.6826 29.27 77.4076 29.135L79.7176 28.955V28.745C79.7176 27.515 78.9826 27.08 77.9926 27.08C76.8076 27.08 76.1326 27.605 76.1326 28.49H74.9026C74.9026 26.96 76.1626 25.955 78.0526 25.955C79.8676 25.955 81.0976 26.915 81.0976 28.895V33.5H79.8976L79.7476 32.315C79.3726 33.155 78.3676 33.68 77.1826 33.68ZM77.5876 32.585C78.9226 32.585 79.7326 31.715 79.7326 30.335V29.945L77.8576 30.095C76.6126 30.215 76.1026 30.695 76.1026 31.415C76.1026 32.195 76.6726 32.585 77.5876 32.585ZM83.0503 36.785V26.165H84.3253L84.4303 27.485C84.9253 26.48 85.9153 25.955 87.0853 25.955C89.1853 25.955 90.4903 27.53 90.4903 29.78C90.4903 32.015 89.2603 33.695 87.0853 33.695C85.9153 33.695 84.9403 33.2 84.4603 32.3V36.785H83.0503ZM84.4753 29.84C84.4753 31.34 85.3453 32.42 86.7853 32.42C88.2253 32.42 89.0803 31.34 89.0803 29.84C89.0803 28.325 88.2253 27.245 86.7853 27.245C85.3453 27.245 84.4753 28.31 84.4753 29.84ZM93.4544 33.485H92.0444V22.46H93.4544V27.29C93.9194 26.495 94.8044 25.955 95.9444 25.955C97.8194 25.955 98.7194 27.14 98.7194 29.015V33.5H97.3094V29.33C97.3094 27.845 96.6044 27.245 95.5544 27.245C94.1894 27.245 93.4544 28.235 93.4544 29.495V33.485ZM108.029 33.5L103.904 22.655H105.479L108.119 29.585C108.359 30.2 108.569 30.815 108.794 31.625C109.049 30.77 109.304 30.05 109.484 29.57L112.109 22.655H113.639L109.559 33.5H108.029ZM115.498 24.425C114.988 24.425 114.568 24.005 114.568 23.495C114.568 22.97 114.988 22.565 115.498 22.565C116.008 22.565 116.428 22.97 116.428 23.495C116.428 24.005 116.008 24.425 115.498 24.425ZM114.808 33.5V26.165H116.218V33.5H114.808ZM121.43 33.68C119.27 33.68 117.785 32.12 117.785 29.84C117.785 27.545 119.24 25.955 121.37 25.955C123.455 25.955 124.82 27.395 124.82 29.57V30.095L119.15 30.11C119.255 31.655 120.065 32.51 121.46 32.51C122.555 32.51 123.275 32.06 123.515 31.22H124.835C124.475 32.795 123.245 33.68 121.43 33.68ZM121.37 27.14C120.14 27.14 119.36 27.875 119.18 29.165H123.41C123.41 27.95 122.615 27.14 121.37 27.14ZM127.721 33.5L125.321 26.165H126.776L127.991 29.975C128.156 30.515 128.306 31.07 128.441 31.715C128.561 31.07 128.756 30.455 128.921 29.975L130.151 26.165H131.591L132.806 29.975C132.926 30.335 133.166 31.19 133.286 31.715C133.406 31.13 133.541 30.62 133.751 29.975L134.981 26.165H136.451L133.946 33.5H132.611L131.336 29.57C131.096 28.835 130.946 28.265 130.871 27.86C130.796 28.22 130.661 28.7 130.391 29.585L129.116 33.5H127.721Z" fill="white"/>
</g>
<defs>
<filter id="filter0_d_1003_1167" x="0.818165" y="0.363628" width="169.364" height="74.3637" filterUnits="userSpaceOnUse" color-interpolation-filters="sRGB">
<feFlood flood-opacity="0" result="BackgroundImageFix"/>
<feColorMatrix in="SourceAlpha" type="matrix" values="0 0 0 0 0 0 0 0 0 0 0 0 0 0 0 0 0 0 127 0" result="hardAlpha"/>
<feMorphology radius="11.4546" operator="erode" in="SourceAlpha" result="effect1_dropShadow_1003_1167"/>
<feOffset dy="9.54546"/>
<feGaussianBlur stdDeviation="14.3182"/>
<feComposite in2="hardAlpha" operator="out"/>
<feColorMatrix type="matrix" values="0 0 0 0 0.376471 0 0 0 0 0.680314 0 0 0 0 0.960784 0 0 0 0.3 0"/>
<feBlend mode="normal" in2="BackgroundImageFix" result="effect1_dropShadow_1003_1167"/>
<feBlend mode="normal" in="SourceGraphic" in2="effect1_dropShadow_1003_1167" result="shape"/>
</filter>
<linearGradient id="paint0_linear_1003_1167" x1="18" y1="8" x2="39.7907" y2="81.5435" gradientUnits="userSpaceOnUse">
<stop stop-color="#2F80ED"/>
<stop offset="1" stop-color="#56CCF2"/>
</linearGradient>
</defs>
</svg>
